HIERARCHY
ROOT Hips
{
 OFFSET 0.000000 0.000000 0.000000
 CHANNELS 6 Xposition Yposition Zposition Yrotation Xrotation Zrotation
 JOINT Chest
 {
  OFFSET 0.000000 9.585900 0.002600
  CHANNELS 3 Yrotation Xrotation Zrotation
  JOINT Chest2
  {
   OFFSET 0.000000 9.601200 -0.005300
   CHANNELS 3 Yrotation Xrotation Zrotation
   JOINT Chest3
   {
    OFFSET 0.000000 9.561800 0.000000
    CHANNELS 3 Yrotation Xrotation Zrotation
    JOINT Chest4
    {
     OFFSET 0.000000 9.552100 0.000000
     CHANNELS 3 Yrotation Xrotation Zrotation
     JOINT Neck
     {
      OFFSET 0.000000 14.453000 0.000000
      CHANNELS 3 Yrotation Xrotation Zrotation
      JOINT Head
      {
       OFFSET 0.000000 8.936500 -0.011300
       CHANNELS 3 Yrotation Xrotation Zrotation
       End Site
       {
        OFFSET 0.000000 17.073600 -0.006000
       }
      }
     }
     JOINT RightCollar
     {
      OFFSET -2.921100 9.558500 0.000000
      CHANNELS 3 Yrotation Xrotation Zrotation
      JOINT RightShoulder
      {
       OFFSET -13.519700 0.000000 0.000000
       CHANNELS 3 Yrotation Xrotation Zrotation
       JOINT RightElbow
       {
        OFFSET 0.000000 -29.696600 0.000000
        CHANNELS 3 Yrotation Xrotation Zrotation
        JOINT RightWrist
        {
         OFFSET 0.000000 -24.004700 0.000000
         CHANNELS 3 Yrotation Xrotation Zrotation
         End Site
         {
          OFFSET 0.000000 -17.728500 0.000000
         }
        }
       }
      }
     }
     JOINT LeftCollar
     {
      OFFSET 2.921100 9.558500 0.000000
      CHANNELS 3 Yrotation Xrotation Zrotation
      JOINT LeftShoulder
      {
       OFFSET 13.519700 0.000000 0.000000
       CHANNELS 3 Yrotation Xrotation Zrotation
       JOINT LeftElbow
       {
        OFFSET 0.000000 -29.696600 0.000000
        CHANNELS 3 Yrotation Xrotation Zrotation
        JOINT LeftWrist
        {
         OFFSET 0.000000 -24.004700 0.000000
         CHANNELS 3 Yrotation Xrotation Zrotation
         End Site
         {
          OFFSET 0.000000 -17.728500 0.000000
         }
        }
       }
      }
     }
    }
   }
  }
 }
 JOINT RightHip
 {
  OFFSET -7.771700 -0.012900 -0.001300
  CHANNELS 3 Yrotation Xrotation Zrotation
  JOINT RightKnee
  {
   OFFSET 0.000000 -40.869800 0.001200
   CHANNELS 3 Yrotation Xrotation Zrotation
   JOINT RightAnkle
   {
    OFFSET 0.000000 -39.717900 0.002100
    CHANNELS 3 Yrotation Xrotation Zrotation
    JOINT RightToe
    {
     OFFSET 0.000000 -4.965400 11.033500
     CHANNELS 3 Yrotation Xrotation Zrotation
     End Site
     {
      OFFSET 0.000000 -1.423100 5.872300
     }
    }
   }
  }
 }
 JOINT LeftHip
 {
  OFFSET 7.771700 -0.012900 -0.001300
  CHANNELS 3 Yrotation Xrotation Zrotation
  JOINT LeftKnee
  {
   OFFSET 0.000000 -40.869800 0.001200
   CHANNELS 3 Yrotation Xrotation Zrotation
   JOINT LeftAnkle
   {
    OFFSET 0.000000 -39.717900 0.002100
    CHANNELS 3 Yrotation Xrotation Zrotation
    JOINT LeftToe
    {
     OFFSET 0.000000 -4.965400 11.033500
     CHANNELS 3 Yrotation Xrotation Zrotation
     End Site
     {
      OFFSET 0.000000 -1.423100 5.872300
     }
    }
   }
  }
 }
}
MOTION
Frames: 16
Frame Time: 0.008333
0.000000 85.388000 0.000000 0.000000 -5.767877 0.000000 0.000000 11.653817 0.000000 0.000000 -5.885947 0.000000 0.000000 -0.000000 0.000000 0.000000 -0.000000 0.000000 0.000000 12.528835 0.000000 0.000000 0.711642 0.000000 0.000000 -0.000000 0.000000 0.000000 0.000000 -90.000000 0.000000 -2.309062 0.000000 0.000000 2.309062 0.000000 0.000000 -0.000000 0.000000 0.000000 -0.000000 90.000000 0.000000 -2.309062 0.000000 0.000000 2.309062 0.000000 0.000000 8.520406 0.000000 0.000000 1.905762 0.000000 -0.000000 -4.658285 0.000000 0.000000 -0.000000 0.000000 0.000000 8.520406 0.000000 0.000000 1.905762 0.000000 -0.000000 -4.658285 0.000000 0.000000 -0.000000 0.000000
-34.488281 51.935768 24.037566 -179.724871 -27.680367 -0.545446 2.324681 22.159981 -2.131052 0.375012 3.100118 -0.245426 0.602308 5.029720 -0.388313 2.128514 18.764509 -1.207589 0.195266 15.850087 -6.751619 1.776607 -8.878374 -7.334794 12.806785 14.102015 14.711536 16.702195 -12.073500 -38.052328 176.958697 -40.004695 148.521872 -31.786009 -9.582372 57.440057 -11.647634 15.527110 -17.712086 -27.711514 -8.032247 38.255781 167.601007 -35.101695 -140.138510 29.831483 -16.021628 -46.830941 -7.058897 -54.572842 0.669695 -65.273581 81.085472 -74.060893 -3.751208 -6.308278 9.095217 -0.007281 -0.903349 0.084779 0.289129 -52.707096 -2.269002 54.101353 84.136384 59.171645 -1.262991 -14.083280 -2.349850 0.524804 0.696602 0.206545
-34.494347 51.933749 24.020488 -179.655531 -27.655798 -0.600575 2.305858 22.191719 -2.113532 0.374204 3.102951 -0.243668 0.595141 5.018890 -0.382288 2.128707 18.787454 -1.199835 0.158459 15.860056 -6.761156 1.739114 -8.867721 -7.336532 12.864882 14.059534 14.702567 16.824351 -12.010417 -38.113891 176.860102 -40.045726 148.564348 -31.817362 -9.590255 57.488417 -11.630475 15.495667 -17.697016 -27.608254 -7.986828 38.246022 167.559198 -35.140806 -140.215908 29.775210 -15.979311 -46.926002 -7.083997 -54.573946 0.671029 -65.401558 81.076492 -74.189762 -3.739998 -6.349221 9.136886 -0.029998 -0.885857 0.083133 0.248179 -52.751745 -2.282554 54.418672 84.158589 59.523503 -1.248886 -14.078371 -2.342437 0.513273 0.664633 0.201562
-34.502175 51.930052 24.003569 -179.572414 -27.607310 -0.660954 2.269984 22.201367 -2.099961 0.373332 3.104817 -0.241374 0.593740 5.021636 -0.378499 2.124597 18.792744 -1.185567 0.122502 15.871804 -6.773554 1.703212 -8.854923 -7.341719 12.968572 14.061680 14.701934 16.901330 -11.999204 -38.181030 176.737290 -40.093566 148.626359 -31.828216 -9.611085 57.509986 -11.584195 15.502878 -17.689020 -27.538264 -7.961792 38.261854 167.519528 -35.187494 -140.292137 29.695637 -15.936111 -46.985932 -7.123115 -54.597104 0.676290 -65.525775 81.069792 -74.314189 -3.746439 -6.396374 9.175554 -0.044239 -0.848243 0.069077 0.186910 -52.813395 -2.278155 54.591255 84.177374 59.718927 -1.258300 -14.091931 -2.339274 0.521918 0.661724 0.206881
-34.510150 51.927287 23.982815 -179.514919 -27.568154 -0.716511 2.243525 22.191110 -2.075401 0.384965 3.135113 -0.249904 0.598916 5.038529 -0.376901 2.119165 18.781036 -1.164102 0.085804 15.886797 -6.787917 1.666921 -8.838535 -7.348919 13.032871 14.057361 14.701705 16.990495 -11.977532 -38.243043 176.611508 -40.148699 148.700429 -31.823893 -9.642319 57.511804 -11.537028 15.512506 -17.673272 -27.479428 -7.941693 38.272145 167.484933 -35.240887 -140.361846 29.602366 -15.892303 -47.019880 -7.144800 -54.609872 0.689997 -65.642110 81.065121 -74.430530 -3.745422 -6.443079 9.187467 -0.058924 -0.803466 0.060917 0.121105 -52.862156 -2.245192 54.803692 84.207309 59.938214 -1.254888 -14.124186 -2.329582 0.522806 0.666141 0.208622
-34.514073 51.926208 23.957705 -179.516228 -27.548129 -0.775919 2.281662 22.198759 -2.017940 0.394587 3.163042 -0.257789 0.589272 5.011201 -0.364753 2.126643 18.813296 -1.151018 0.049498 15.905910 -6.803808 1.631339 -8.817598 -7.357946 13.077060 14.050117 14.701519 17.073634 -11.958502 -38.298802 176.498921 -40.213361 148.775031 -31.814481 -9.672342 57.505029 -11.483624 15.529221 -17.662382 -27.447542 -7.922988 38.293358 167.455363 -35.299831 -140.420006 29.511213 -15.848768 -47.037354 -7.150326 -54.600680 0.748856 -65.767902 81.058442 -74.556138 -3.735616 -6.517341 9.235538 -0.092140 -0.754449 0.050600 0.069005 -52.892669 -2.156098 55.145061 84.250599 60.277699 -1.201395 -14.139423 -2.300754 0.466685 0.629708 0.194173
-34.526072 51.923210 23.935474 -179.462331 -27.502226 -0.818314 2.263805 22.210882 -2.015598 0.391535 3.158953 -0.251440 0.580864 4.987450 -0.354730 2.131369 18.844035 -1.135687 0.014078 15.928290 -6.821332 1.597105 -8.792978 -7.369064 13.089906 14.020017 14.692475 17.157126 -11.921106 -38.337561 176.404627 -40.291361 148.839331 -31.813878 -9.692110 57.502108 -11.427873 15.543152 -17.653467 -27.430750 -7.900685 38.318557 167.421020 -35.360890 -140.461645 29.443835 -15.811762 -47.055716 -7.168222 -54.627246 0.749091 -65.921012 81.054728 -74.720055 -3.731530 -6.554038 9.288312 -0.107037 -0.743282 0.037799 0.050124 -52.952356 -2.156566 55.357816 84.281421 60.509071 -1.227837 -14.147965 -2.291175 0.487013 0.611221 0.206589
-34.542934 51.919182 23.914776 -179.365075 -27.443070 -0.856858 2.192604 22.206388 -2.038095 0.395009 3.153840 -0.245072 0.575795 4.996185 -0.352453 2.131768 18.845175 -1.115708 -0.021722 15.952543 -6.838235 1.562361 -8.766350 -7.379459 13.136935 14.034710 14.702433 17.207436 -11.939015 -38.393988 176.329856 -40.390168 148.883477 -31.836223 -9.755742 57.508013 -11.327003 15.613610 -17.637909 -27.484397 -7.911233 38.374018 167.385983 -35.340402 -140.484390 29.373646 -15.717534 -47.065541 -7.235389 -54.677417 0.739489 -66.080624 81.059613 -74.911586 -3.723983 -6.538638 9.318565 -0.105820 -0.777103 0.011438 0.011152 -53.025569 -2.187629 55.564963 84.310811 60.727636 -1.299151 -14.191776 -2.292444 0.553229 0.629632 0.239851
-34.550181 51.917334 23.889870 -179.348007 -27.412841 -0.920939 2.255788 22.258403 -1.986212 0.353896 3.093562 -0.222848 0.582491 5.024785 -0.355249 2.130328 18.846137 -1.100926 -0.058142 15.978520 -6.852478 1.526257 -8.737991 -7.386663 13.176847 14.052909 14.718378 17.255822 -11.960478 -38.449066 176.278604 -40.514606 148.897732 -31.869999 -9.754398 57.529721 -11.271374 15.652478 -17.624312 -27.485769 -7.909590 38.418864 167.277310 -35.416412 -140.465136 29.405547 -15.723380 -47.155216 -7.259008 -54.682535 0.795973 -66.225321 81.057080 -75.057781 -3.708640 -6.602016 9.322211 -0.137703 -0.743888 0.043328 -0.036944 -53.073816 -2.122740 55.955116 84.353997 61.124809 -1.235867 -14.184352 -2.263101 0.495119 0.585064 0.215627
-34.564228 51.915178 23.865266 -179.290872 -27.381342 -0.966912 2.247966 22.263540 -1.961740 0.334156 3.079089 -0.219277 0.594316 5.050045 -0.357776 2.119972 18.842072 -1.087708 -0.094318 16.006655 -6.865331 1.490096 -8.707360 -7.392342 13.203644 14.064350 14.727032 17.314166 -11.966180 -38.489862 176.250813 -40.664644 148.872603 -31.929407 -9.759133 57.556471 -11.235378 15.677745 -17.618688 -27.459673 -7.901178 38.462323 167.110219 -35.469308 -140.404450 29.460142 -15.738904 -47.293246 -7.200288 -54.685328 0.745149 -66.387215 81.044257 -75.184426 -3.748251 -6.647703 9.341204 -0.116348 -0.720517 0.067755 -0.084923 -53.109319 -2.114187 56.154403 84.373338 61.332766 -1.235596 -14.212524 -2.255791 0.497621 0.589351 0.219063
-34.579331 51.913111 23.840440 -179.264363 -27.353796 -0.996092 2.265190 22.270497 -1.940216 0.335539 3.080949 -0.215780 0.590258 5.051937 -0.354779 2.099411 18.836661 -1.079561 -0.128125 16.037406 -6.877413 1.481300 -8.722405 -7.394291 13.232451 14.081134 14.730741 17.381558 -11.966115 -38.520640 176.243147 -40.843653 148.802713 -32.013489 -9.789930 57.597458 -11.219378 15.678460 -17.615780 -27.402875 -7.882733 38.492254 166.921957 -35.479685 -140.311007 29.532963 -15.729641 -47.480847 -7.179570 -54.697251 0.731945 -66.522114 81.044002 -75.312988 -3.776145 -6.663463 9.348872 -0.095767 -0.716298 0.054324 -0.094145 -53.139450 -2.112943 56.355726 84.406986 61.541217 -1.226390 -14.251837 -2.241926 0.494884 0.594132 0.221660
-34.589928 51.908298 23.821302 -179.226546 -27.290221 -1.060509 2.265072 22.222844 -1.890685 0.363000 3.112741 -0.221856 0.594943 5.062715 -0.354144 2.062936 18.802220 -1.064101 -0.159600 16.070914 -6.886534 1.436660 -8.661398 -7.399217 13.257158 14.097723 14.736192 17.461140 -11.960791 -38.545451 176.254023 -41.064734 148.687202 -32.123749 -9.817202 57.656069 -11.173504 15.716643 -17.625314 -27.387618 -7.886006 38.553669 166.706466 -35.496593 -140.170372 29.647654 -15.722250 -47.756930 -7.254602 -54.746337 0.799028 -66.581920 81.044244 -75.367146 -3.803908 -6.646952 9.329099 -0.067130 -0.737571 0.082639 -0.148069 -53.211936 -2.057253 56.581030 84.458906 61.762996 -1.188862 -14.316433 -2.208752 0.467118 0.620721 0.212415
-34.607815 51.905389 23.798745 -179.171100 -27.252723 -1.093719 2.233238 22.202693 -1.883025 0.361476 3.111631 -0.220971 0.604709 5.072232 -0.358630 2.048814 18.796929 -1.056330 -0.189089 16.109062 -6.891417 1.393507 -8.596259 -7.398657 13.265824 14.096186 14.741815 17.554511 -11.940467 -38.558009 176.281589 -41.344542 148.523612 -32.266558 -9.840294 57.739756 -11.138911 15.740048 -17.631644 -27.345996 -7.894131 38.607109 166.459767 -35.532069 -139.978145 29.807500 -15.725436 -48.137068 -7.233897 -54.765340 0.758831 -66.722889 81.049884 -75.500877 -3.830653 -6.675824 9.361089 -0.059253 -0.731162 0.087794 -0.173427 -53.251677 -2.067990 56.728280 84.477749 61.918797 -1.208731 -14.347986 -2.202005 0.483336 0.629171 0.222657
-34.636345 51.904792 23.772132 -179.060784 -27.245776 -1.093665 2.149619 22.235624 -1.937065 0.381148 3.127688 -0.234057 0.572859 5.037995 -0.343752 2.036049 18.790067 -1.049803 -0.213746 16.156560 -6.892379 1.366858 -8.545051 -7.393779 13.278035 14.099939 14.754160 17.599932 -11.940424 -38.567793 176.377926 -41.669190 148.288913 -32.439224 -9.858420 57.850981 -11.101951 15.754058 -17.642084 -27.278146 -7.906062 38.659402 166.171818 -35.595880 -139.723133 30.012497 -15.746379 -48.635977 -7.179094 -54.759213 0.614332 -66.948953 81.056959 -75.752726 -3.818464 -6.689578 9.435222 -0.068981 -0.746307 0.047509 -0.191704 -53.258417 -2.163284 56.893928 84.488592 62.078320 -1.280963 -14.398185 -2.203834 0.549866 0.656042 0.254634
-34.655994 51.901871 23.751232 -178.961838 -27.204681 -1.146525 2.110191 22.232848 -1.943644 0.358941 3.106035 -0.221582 0.568990 5.031478 -0.341512 2.024084 18.780692 -1.043831 -0.232531 16.217963 -6.889705 1.345689 -8.478767 -7.386143 13.296601 14.120304 14.774000 17.733314 -11.951835 -38.583829 176.400316 -42.113744 148.012515 -32.637508 -9.867556 57.989765 -11.053575 15.771216 -17.657633 -27.188954 -7.930483 38.711291 165.837006 -35.700216 -139.396953 30.260327 -15.780303 -49.259943 -7.221922 -54.783131 0.587851 -67.108575 81.064861 -75.930807 -3.797763 -6.705575 9.476886 -0.096279 -0.755062 0.038194 -0.244533 -53.308196 -2.179147 57.050680 84.515649 62.241339 -1.294670 -14.426780 -2.185763 0.560130 0.664155 0.260311
-34.675679 51.899812 23.729761 -178.901342 -27.173396 -1.187395 2.093271 22.219449 -1.946776 0.351364 3.095869 -0.214781 0.564805 5.023326 -0.339224 2.010962 18.768760 -1.038184 -0.247572 16.296310 -6.883542 1.327654 -8.394116 -7.375453 13.340180 14.139011 14.808201 17.868946 -11.973328 -38.608601 176.426066 -42.660645 147.659737 -32.854830 -9.870439 58.155381 -11.008764 15.781714 -17.664433 -27.062323 -7.968364 38.743546 165.458264 -35.856914 -138.993606 30.551232 -15.824467 -50.008903 -7.268532 -54.804110 0.592330 -67.249569 81.073113 -76.097191 -3.787085 -6.698763 9.481272 -0.109925 -0.777718 0.055417 -0.262364 -53.348355 -2.192556 57.296399 84.536546 62.495806 -1.311677 -14.447467 -2.164702 0.568334 0.659862 0.263848
